<svg width="12" height="12" viewBox="0 0 12 12" fill="none" xmlns="http://www.w3.org/2000/svg">
<path fill-rule="evenodd" clip-rule="evenodd" d="M6 0.375C6.31066 0.375 6.5625 0.62684 6.5625 0.9375V5.4375H11.0625C11.3732 5.4375 11.625 5.68934 11.625 6C11.625 6.31066 11.3732 6.5625 11.0625 6.5625H6.5625V11.0625C6.5625 11.3732 6.31066 11.625 6 11.625C5.68934 11.625 5.4375 11.3732 5.4375 11.0625V6.5625H0.9375C0.62684 6.5625 0.375 6.31066 0.375 6C0.375 5.68934 0.62684 5.4375 0.9375 5.4375H5.4375V0.9375C5.4375 0.62684 5.68934 0.375 6 0.375Z" fill="white"/>
</svg>
