<svg width="20" height="20" viewBox="0 0 20 20" fill="none" xmlns="http://www.w3.org/2000/svg">
<path d="M17.5 4.98332C14.725 4.70832 11.9333 4.56665 9.15 4.56665C7.5 4.56665 5.85 4.64998 4.2 4.81665L2.5 4.98332" stroke="#EB5757" stroke-width="1.5" stroke-linecap="round" stroke-linejoin="round"/>
<path d="M7.08334 4.14175L7.26668 3.05008C7.40001 2.25841 7.50001 1.66675 8.90834 1.66675H11.0917C12.5 1.66675 12.6083 2.29175 12.7333 3.05841L12.9167 4.14175" stroke="#EB5757" stroke-width="1.5" stroke-linecap="round" stroke-linejoin="round"/>
<path d="M15.7083 7.6167L15.1667 16.0084C15.075 17.3167 15 18.3334 12.675 18.3334H7.32499C4.99999 18.3334 4.92499 17.3167 4.83332 16.0084L4.29166 7.6167" stroke="#EB5757" stroke-width="1.5" stroke-linecap="round" stroke-linejoin="round"/>
<path d="M8.60834 13.75H11.3833" stroke="#EB5757" stroke-width="1.5" stroke-linecap="round" stroke-linejoin="round"/>
<path d="M7.91666 10.4167H12.0833" stroke="#EB5757" stroke-width="1.5" stroke-linecap="round" stroke-linejoin="round"/>
</svg>
